G04 EAGLE Gerber RS-274X export*
G75*
%MOMM*%
%FSLAX34Y34*%
%LPD*%
%INTop Copper*%
%IPPOS*%
%AMOC8*
5,1,8,0,0,1.08239X$1,22.5*%
G01*
%ADD10C,1.524000*%
%ADD11P,1.429621X8X202.500000*%
%ADD12P,1.429621X8X22.500000*%
%ADD13P,1.732040X8X112.500000*%
%ADD14C,1.600200*%
%ADD15R,1.524000X1.524000*%
%ADD16C,1.524000*%
%ADD17R,1.300000X1.300000*%
%ADD18P,1.407107X8X22.500000*%
%ADD19P,1.407107X8X202.500000*%
%ADD20P,1.407107X8X112.500000*%
%ADD21R,1.108000X1.108000*%
%ADD22C,1.108000*%
%ADD23R,0.508000X1.016000*%
%ADD24R,1.016000X0.508000*%
%ADD25R,0.812800X0.600000*%
%ADD26R,0.600000X0.812800*%
%ADD27C,1.308000*%
%ADD28C,2.175000*%
%ADD29P,1.429621X8X112.500000*%
%ADD30C,0.152400*%
%ADD31C,0.756400*%


D10*
X556150Y205920D02*
X556150Y190680D01*
X530750Y190680D02*
X530750Y205920D01*
X505350Y205920D02*
X505350Y190680D01*
X448200Y190680D02*
X448200Y205920D01*
X422800Y205920D02*
X422800Y190680D01*
X397400Y190680D02*
X397400Y205920D01*
X340250Y205920D02*
X340250Y190680D01*
X314850Y190680D02*
X314850Y205920D01*
X289450Y205920D02*
X289450Y190680D01*
X232300Y190680D02*
X232300Y205920D01*
X206900Y205920D02*
X206900Y190680D01*
X181500Y190680D02*
X181500Y205920D01*
D11*
X422500Y247500D03*
X371700Y247500D03*
X422500Y398300D03*
X371700Y398300D03*
X312500Y249100D03*
X261700Y249100D03*
D12*
X261400Y398800D03*
X312200Y398800D03*
D13*
X585200Y101200D03*
D14*
X585200Y75800D03*
D13*
X584740Y44850D03*
D14*
X584740Y19450D03*
D12*
X475050Y248660D03*
X525850Y248660D03*
D11*
X508600Y396400D03*
X457800Y396400D03*
D15*
X35910Y313530D03*
D16*
X35910Y338530D03*
D17*
X395300Y22800D03*
D18*
X375300Y22800D03*
X355300Y22800D03*
D17*
X578700Y395300D03*
D19*
X598700Y395300D03*
X618700Y395300D03*
D17*
X500300Y22600D03*
D18*
X480300Y22600D03*
X460300Y22600D03*
D17*
X651900Y74600D03*
D20*
X651900Y54600D03*
X651900Y34600D03*
D10*
X505350Y127180D02*
X505350Y142420D01*
X530750Y142420D02*
X530750Y127180D01*
X556150Y127180D02*
X556150Y142420D01*
X397400Y142420D02*
X397400Y127180D01*
X422800Y127180D02*
X422800Y142420D01*
X448200Y142420D02*
X448200Y127180D01*
X289450Y127180D02*
X289450Y142420D01*
X314850Y142420D02*
X314850Y127180D01*
X340250Y127180D02*
X340250Y142420D01*
X181500Y142420D02*
X181500Y127180D01*
X206900Y127180D02*
X206900Y142420D01*
X232300Y142420D02*
X232300Y127180D01*
D21*
X334900Y281700D03*
D22*
X334900Y307100D03*
X334900Y332500D03*
X334900Y357900D03*
X258700Y357900D03*
X258700Y332500D03*
X258700Y307100D03*
X258700Y281700D03*
D23*
X390320Y296200D03*
X408100Y296200D03*
X389510Y345930D03*
X407290Y345930D03*
X390260Y323200D03*
X408040Y323200D03*
X190220Y91010D03*
X208000Y91010D03*
X297220Y91920D03*
X315000Y91920D03*
X222910Y90380D03*
X240690Y90380D03*
X262100Y90790D03*
X279880Y90790D03*
X486510Y320200D03*
X504290Y320200D03*
D24*
X553200Y320890D03*
X553200Y303110D03*
X553200Y349290D03*
X553200Y331510D03*
D23*
X51540Y263140D03*
X69320Y263140D03*
X486920Y345200D03*
X504700Y345200D03*
X706690Y75380D03*
X688910Y75380D03*
X706420Y100780D03*
X688640Y100780D03*
D25*
X142250Y192530D03*
X142250Y212530D03*
D26*
X20530Y98250D03*
X40530Y98250D03*
X41270Y83450D03*
X21270Y83450D03*
D23*
X20680Y262730D03*
X38460Y262730D03*
D27*
X552970Y69030D03*
X451370Y69030D03*
X451190Y97970D03*
X552790Y97970D03*
X334810Y97970D03*
X436410Y97970D03*
X436030Y68300D03*
X334430Y68300D03*
D21*
X436900Y281300D03*
D22*
X436900Y306700D03*
X436900Y332100D03*
X436900Y357500D03*
X360700Y357500D03*
X360700Y332100D03*
X360700Y306700D03*
X360700Y281300D03*
D27*
X160300Y239200D03*
X134900Y239200D03*
X185700Y239200D03*
D28*
X110300Y291700D03*
X210300Y291700D03*
D21*
X531900Y279900D03*
D22*
X531900Y305300D03*
X531900Y330700D03*
X531900Y356100D03*
X455700Y356100D03*
X455700Y330700D03*
X455700Y305300D03*
X455700Y279900D03*
D23*
X288180Y318930D03*
X305960Y318930D03*
X287120Y345930D03*
X304900Y345930D03*
X288760Y296230D03*
X306540Y296230D03*
D27*
X626900Y168900D03*
X677700Y168900D03*
X623900Y298900D03*
X674700Y298900D03*
X39900Y190800D03*
X90700Y190800D03*
X88200Y68900D03*
X139000Y68900D03*
D29*
X234000Y17600D03*
X234000Y68400D03*
X199000Y17600D03*
X199000Y68400D03*
X270000Y17600D03*
X270000Y68400D03*
X306000Y17600D03*
X306000Y68400D03*
D30*
X289560Y135636D02*
X289560Y146304D01*
X341376Y198120D01*
X289560Y135636D02*
X289450Y134800D01*
X340250Y198300D02*
X341376Y198120D01*
X188976Y105156D02*
X188976Y91440D01*
X188976Y105156D02*
X170688Y123444D01*
X170688Y146304D01*
X204216Y179832D01*
X213360Y179832D01*
X231648Y198120D01*
X190220Y91010D02*
X188976Y91440D01*
X231648Y198120D02*
X232300Y198300D01*
X260604Y109728D02*
X278892Y91440D01*
X217932Y109728D02*
X207264Y109728D01*
X217932Y109728D02*
X260604Y109728D01*
X207264Y109728D02*
X182880Y134112D01*
X278892Y91440D02*
X279880Y90790D01*
X182880Y134112D02*
X181500Y134800D01*
X295656Y179832D02*
X313944Y198120D01*
X295656Y179832D02*
X249936Y179832D01*
X217932Y147828D01*
X217932Y109728D01*
X313944Y198120D02*
X314850Y198300D01*
X326136Y295656D02*
X339852Y295656D01*
X326136Y295656D02*
X307848Y295656D01*
X339852Y295656D02*
X352044Y307848D01*
X352044Y310896D01*
X384048Y342900D01*
X384048Y352044D01*
X420624Y388620D01*
X437388Y388620D01*
X454152Y405384D01*
X588264Y405384D01*
X597408Y396240D01*
X307848Y295656D02*
X306540Y296230D01*
X597408Y396240D02*
X598700Y395300D01*
X333756Y99060D02*
X324612Y99060D01*
X310896Y112776D01*
X231648Y112776D01*
X220980Y123444D01*
X220980Y146304D01*
X251460Y176784D01*
X315468Y176784D01*
X326136Y187452D01*
X326136Y295656D01*
X333756Y99060D02*
X334810Y97970D01*
X287672Y318676D02*
X288180Y318930D01*
X289560Y318516D02*
X294132Y318516D01*
X304800Y307848D01*
X333756Y307848D01*
X289560Y318516D02*
X288180Y318930D01*
X333756Y307848D02*
X334900Y307100D01*
X305960Y318930D02*
X305960Y320200D01*
X306324Y320040D02*
X321564Y320040D01*
X333756Y332232D01*
X306324Y320040D02*
X305960Y318930D01*
X333756Y332232D02*
X334900Y332500D01*
X288036Y327660D02*
X259080Y356616D01*
X288036Y327660D02*
X297180Y327660D01*
X304800Y320040D01*
X259080Y356616D02*
X258700Y357900D01*
X304800Y320040D02*
X305960Y318930D01*
X287628Y345676D02*
X287120Y345930D01*
X289560Y297180D02*
X295656Y297180D01*
X303276Y304800D01*
X324612Y304800D01*
X330708Y298704D01*
X338328Y298704D01*
X342900Y303276D01*
X342900Y348996D01*
X335280Y356616D01*
X289560Y297180D02*
X288760Y296230D01*
X335280Y356616D02*
X334900Y357900D01*
X292608Y345948D02*
X288036Y345948D01*
X292608Y345948D02*
X303276Y356616D01*
X333756Y356616D01*
X288036Y345948D02*
X287120Y345930D01*
X333756Y356616D02*
X334900Y357900D01*
X141732Y202692D02*
X141732Y193548D01*
X141732Y202692D02*
X135636Y208788D01*
X135636Y237744D01*
X141732Y193548D02*
X142250Y192530D01*
X135636Y237744D02*
X134900Y239200D01*
X554736Y198120D02*
X554736Y184404D01*
X505968Y135636D01*
X554736Y198120D02*
X556150Y198300D01*
X505968Y135636D02*
X505350Y134800D01*
D31*
X429912Y179504D03*
D30*
X431292Y179832D02*
X449580Y198120D01*
X431292Y179832D02*
X429912Y179504D01*
X448200Y198300D02*
X449580Y198120D01*
X304800Y92964D02*
X298704Y92964D01*
X304800Y92964D02*
X312420Y100584D01*
X318516Y100584D01*
X330708Y88392D01*
X409956Y88392D01*
X414528Y92964D01*
X298704Y92964D02*
X297220Y91920D01*
X556260Y135636D02*
X556260Y175260D01*
X566928Y185928D01*
X566928Y210312D01*
X560832Y216408D01*
X466344Y216408D01*
X449580Y199644D01*
X556260Y135636D02*
X556150Y134800D01*
X449580Y199644D02*
X448200Y198300D01*
D31*
X414528Y92964D03*
D30*
X251460Y89916D02*
X240792Y89916D01*
X251460Y89916D02*
X262128Y79248D01*
X445008Y79248D01*
X460248Y94488D01*
X460248Y102108D01*
X446532Y115824D01*
X437388Y115824D02*
X416052Y115824D01*
X437388Y115824D02*
X446532Y115824D01*
X416052Y115824D02*
X397764Y134112D01*
X240690Y90380D02*
X240792Y89916D01*
X397400Y134800D02*
X397764Y134112D01*
X527304Y198120D02*
X530352Y198120D01*
X527304Y198120D02*
X481584Y152400D01*
X443484Y152400D01*
X437388Y146304D01*
X437388Y115824D01*
X530352Y198120D02*
X530750Y198300D01*
X396240Y323088D02*
X391668Y323088D01*
X396240Y323088D02*
X411480Y307848D01*
X435864Y307848D01*
X391668Y323088D02*
X390260Y323200D01*
X435864Y307848D02*
X436900Y306700D01*
X429768Y324612D02*
X408432Y324612D01*
X429768Y324612D02*
X435864Y330708D01*
X408432Y324612D02*
X408040Y323200D01*
X435864Y330708D02*
X436900Y332100D01*
X407290Y345930D02*
X406528Y345676D01*
X390144Y312420D02*
X390144Y297180D01*
X390144Y312420D02*
X384048Y318516D01*
X384048Y329184D01*
X399288Y344424D01*
X406908Y344424D01*
X390144Y297180D02*
X390320Y296200D01*
X406908Y344424D02*
X407290Y345930D01*
X419100Y356616D02*
X435864Y356616D01*
X419100Y356616D02*
X408432Y345948D01*
X435864Y356616D02*
X436900Y357500D01*
X408432Y345948D02*
X407290Y345930D01*
X389764Y347200D02*
X389510Y345930D01*
X305916Y345676D02*
X304900Y345930D01*
X388240Y347200D02*
X389510Y345930D01*
X707136Y100584D02*
X707136Y76200D01*
X706690Y75380D01*
X707136Y100584D02*
X706420Y100780D01*
X705612Y74676D02*
X687324Y56388D01*
X673608Y56388D01*
X652272Y35052D01*
X705612Y74676D02*
X706690Y75380D01*
X652272Y35052D02*
X651900Y34600D01*
X525780Y320040D02*
X504444Y320040D01*
X525780Y320040D02*
X530352Y315468D01*
X559308Y315468D01*
X592836Y348996D02*
X617220Y373380D01*
X592836Y348996D02*
X559308Y315468D01*
X617220Y373380D02*
X617220Y394716D01*
X504444Y320040D02*
X504290Y320200D01*
X617220Y394716D02*
X618700Y395300D01*
X705612Y236220D02*
X705612Y102108D01*
X705612Y236220D02*
X592836Y348996D01*
X705612Y102108D02*
X706420Y100780D01*
X50292Y263652D02*
X39624Y263652D01*
X38460Y262730D01*
X50292Y263652D02*
X51540Y263140D01*
X51816Y263652D02*
X57912Y263652D01*
X65532Y271272D01*
X73152Y271272D01*
X89916Y254508D01*
X89916Y192024D01*
X51540Y263140D02*
X51816Y263652D01*
X89916Y192024D02*
X90700Y190800D01*
X41148Y97536D02*
X41148Y83820D01*
X41148Y97536D02*
X40530Y98250D01*
X41148Y83820D02*
X41270Y83450D01*
X42672Y82296D02*
X74676Y82296D01*
X86868Y70104D01*
X42672Y82296D02*
X41270Y83450D01*
X86868Y70104D02*
X88200Y68900D01*
X138684Y18288D02*
X198120Y18288D01*
X138684Y18288D02*
X88392Y68580D01*
X198120Y18288D02*
X199000Y17600D01*
X88392Y68580D02*
X88200Y68900D01*
X309372Y21336D02*
X355092Y21336D01*
X309372Y21336D02*
X306324Y18288D01*
X355092Y21336D02*
X355300Y22800D01*
X306324Y18288D02*
X306000Y17600D01*
X309372Y21336D02*
X309372Y28956D01*
X271272Y67056D01*
X309372Y21336D02*
X306000Y17600D01*
X271272Y67056D02*
X270000Y68400D01*
X499872Y345948D02*
X504444Y345948D01*
X499872Y345948D02*
X496824Y348996D01*
X504444Y345948D02*
X504700Y345200D01*
X397764Y347472D02*
X390144Y347472D01*
X397764Y347472D02*
X435864Y385572D01*
X446532Y385572D01*
X457200Y396240D01*
X390144Y347472D02*
X389510Y345930D01*
X457200Y396240D02*
X457800Y396400D01*
X473964Y248412D02*
X423672Y248412D01*
X422500Y247500D01*
X473964Y248412D02*
X475050Y248660D01*
X304800Y344424D02*
X297180Y344424D01*
X291084Y338328D01*
X283464Y338328D01*
X281940Y339852D01*
X281940Y365760D02*
X281940Y368808D01*
X281940Y365760D02*
X281940Y339852D01*
X281940Y368808D02*
X310896Y397764D01*
X304900Y345930D02*
X304800Y344424D01*
X310896Y397764D02*
X312200Y398800D01*
X312420Y260604D02*
X312420Y249936D01*
X312420Y260604D02*
X266700Y306324D01*
X266700Y338328D01*
X249936Y355092D01*
X249936Y361188D01*
X254508Y365760D01*
X281940Y365760D01*
X312420Y249936D02*
X312500Y249100D01*
X312420Y399288D02*
X370332Y399288D01*
X371700Y398300D01*
X312420Y399288D02*
X312200Y398800D01*
D31*
X496824Y348996D03*
D30*
X21696Y261968D02*
X20680Y262730D01*
X20172Y263492D01*
X449580Y278892D02*
X455676Y278892D01*
X449580Y278892D02*
X428244Y257556D01*
X397764Y257556D02*
X381000Y257556D01*
X397764Y257556D02*
X428244Y257556D01*
X381000Y257556D02*
X371856Y248412D01*
X455676Y278892D02*
X455700Y279900D01*
X371856Y248412D02*
X371700Y247500D01*
X361188Y277368D02*
X361188Y280416D01*
X361188Y277368D02*
X381000Y257556D01*
X361188Y280416D02*
X360700Y281300D01*
X397764Y257556D02*
X397764Y199644D01*
X397400Y198300D01*
X19812Y88392D02*
X19812Y83820D01*
X19812Y88392D02*
X15240Y92964D01*
X15240Y257556D01*
X19812Y262128D01*
X19812Y83820D02*
X21270Y83450D01*
X19812Y262128D02*
X20680Y262730D01*
X35052Y332232D02*
X35052Y338328D01*
X35052Y332232D02*
X21336Y318516D01*
X21336Y274320D02*
X21336Y263652D01*
X21336Y274320D02*
X21336Y318516D01*
X35052Y338328D02*
X35910Y338530D01*
X21336Y263652D02*
X20680Y262730D01*
X207264Y89916D02*
X207264Y76200D01*
X199644Y68580D01*
X207264Y89916D02*
X208000Y91010D01*
X199644Y68580D02*
X199000Y68400D01*
X307848Y91440D02*
X313944Y91440D01*
X304800Y88392D02*
X298704Y82296D01*
X304800Y88392D02*
X307848Y91440D01*
X298704Y82296D02*
X277368Y82296D01*
X268224Y91440D01*
X268224Y96012D01*
X262128Y102108D01*
X219456Y102108D01*
X208788Y91440D01*
X313944Y91440D02*
X315000Y91920D01*
X208788Y91440D02*
X208000Y91010D01*
X198120Y68580D02*
X167640Y68580D01*
X140208Y68580D01*
X139000Y68900D01*
X198120Y68580D02*
X199000Y68400D01*
X304800Y88392D02*
X306324Y86868D01*
X143256Y213360D02*
X143256Y220980D01*
X155448Y233172D02*
X160020Y237744D01*
X155448Y233172D02*
X143256Y220980D01*
X143256Y213360D02*
X142250Y212530D01*
X160020Y237744D02*
X160300Y239200D01*
X155448Y199644D02*
X167640Y199644D01*
X181356Y199644D01*
X155448Y199644D02*
X143256Y211836D01*
X181356Y199644D02*
X181500Y198300D01*
X143256Y211836D02*
X142250Y212530D01*
X259080Y251460D02*
X259080Y280416D01*
X259080Y251460D02*
X260604Y249936D01*
X259080Y280416D02*
X258700Y281700D01*
X260604Y249936D02*
X261700Y249100D01*
X288036Y222504D02*
X288036Y199644D01*
X288036Y222504D02*
X262128Y248412D01*
X288036Y199644D02*
X289450Y198300D01*
X262128Y248412D02*
X261700Y249100D01*
X185928Y199644D02*
X182880Y199644D01*
X185928Y199644D02*
X237744Y251460D01*
X259080Y251460D01*
X182880Y199644D02*
X181500Y198300D01*
X259080Y251460D02*
X261700Y249100D01*
X167640Y199644D02*
X167640Y68580D01*
X114300Y274320D02*
X21336Y274320D01*
X114300Y274320D02*
X155448Y233172D01*
D31*
X306324Y86868D03*
D30*
X315468Y135636D02*
X318516Y135636D01*
X335280Y152400D01*
X352044Y152400D02*
X405384Y152400D01*
X352044Y152400D02*
X335280Y152400D01*
X405384Y152400D02*
X422148Y135636D01*
X315468Y135636D02*
X314850Y134800D01*
X422148Y135636D02*
X422800Y134800D01*
X368808Y306324D02*
X361188Y306324D01*
X368808Y306324D02*
X387096Y288036D01*
X393192Y288036D01*
X402336Y297180D01*
X402336Y301752D01*
X405384Y304800D01*
X426720Y304800D01*
X432816Y298704D01*
X449580Y298704D01*
X455676Y304800D01*
X361188Y306324D02*
X360700Y306700D01*
X455676Y304800D02*
X455700Y305300D01*
X352044Y298704D02*
X352044Y152400D01*
X352044Y298704D02*
X359664Y306324D01*
X360700Y306700D01*
X21336Y172212D02*
X21336Y105156D01*
X21336Y99060D01*
X21336Y172212D02*
X39624Y190500D01*
X21336Y99060D02*
X20530Y98250D01*
X39624Y190500D02*
X39900Y190800D01*
X68580Y219456D02*
X68580Y262128D01*
X68580Y219456D02*
X41148Y192024D01*
X68580Y262128D02*
X69320Y263140D01*
X41148Y192024D02*
X39900Y190800D01*
X224028Y91440D02*
X230124Y91440D01*
X237744Y99060D01*
X252984Y99060D01*
X260604Y91440D01*
X224028Y91440D02*
X222910Y90380D01*
X260604Y91440D02*
X262100Y90790D01*
X224028Y59436D02*
X224028Y27432D01*
X224028Y59436D02*
X224028Y89916D01*
X224028Y27432D02*
X233172Y18288D01*
X224028Y89916D02*
X222910Y90380D01*
X233172Y18288D02*
X234000Y17600D01*
X234696Y18288D02*
X269748Y18288D01*
X270000Y17600D01*
X234696Y18288D02*
X234000Y17600D01*
X257556Y307848D02*
X257556Y321564D01*
X246888Y332232D01*
X246888Y384048D01*
X260604Y397764D01*
X257556Y307848D02*
X258700Y307100D01*
X260604Y397764D02*
X261400Y398800D01*
X190500Y239268D02*
X185928Y239268D01*
X190500Y239268D02*
X257556Y306324D01*
X185928Y239268D02*
X185700Y239200D01*
X257556Y306324D02*
X258700Y307100D01*
X89916Y105156D02*
X21336Y105156D01*
X89916Y105156D02*
X135636Y59436D01*
X224028Y59436D01*
X501396Y30480D02*
X501396Y22860D01*
X501396Y30480D02*
X556260Y85344D01*
X568452Y85344D01*
X583692Y100584D01*
X501396Y22860D02*
X500300Y22600D01*
X583692Y100584D02*
X585200Y101200D01*
X667512Y76200D02*
X688848Y76200D01*
X667512Y76200D02*
X659892Y83820D01*
X595884Y83820D02*
X592836Y83820D01*
X595884Y83820D02*
X659892Y83820D01*
X592836Y83820D02*
X585216Y76200D01*
X688848Y76200D02*
X688910Y75380D01*
X585216Y76200D02*
X585200Y75800D01*
X533400Y263652D02*
X533400Y278892D01*
X533400Y263652D02*
X595884Y201168D01*
X595884Y83820D01*
X533400Y278892D02*
X531900Y279900D01*
X688848Y100584D02*
X688848Y86868D01*
X694944Y80772D01*
X694944Y70104D01*
X688848Y64008D01*
X629412Y64008D01*
X585216Y19812D01*
X688640Y100780D02*
X688848Y100584D01*
X585216Y19812D02*
X584740Y19450D01*
X544068Y306324D02*
X533400Y306324D01*
X544068Y306324D02*
X547116Y309372D01*
X626364Y309372D01*
X687324Y248412D01*
X687324Y102108D01*
X533400Y306324D02*
X531900Y305300D01*
X687324Y102108D02*
X688640Y100780D01*
X492252Y344424D02*
X487680Y344424D01*
X492252Y344424D02*
X505968Y330708D01*
X531876Y330708D01*
X487680Y344424D02*
X486920Y345200D01*
X531876Y330708D02*
X531900Y330700D01*
X533400Y330708D02*
X551688Y348996D01*
X553200Y349290D01*
X533400Y330708D02*
X531900Y330700D01*
X486510Y320200D02*
X486256Y320200D01*
X487680Y321564D02*
X493776Y321564D01*
X499872Y327660D01*
X522732Y327660D01*
X528828Y321564D01*
X551688Y321564D01*
X487680Y321564D02*
X486510Y320200D01*
X551688Y321564D02*
X553200Y320890D01*
X531876Y355092D02*
X484632Y355092D01*
X481584Y352044D01*
X481584Y326136D01*
X486156Y321564D01*
X531876Y355092D02*
X531900Y356100D01*
X486156Y321564D02*
X486510Y320200D01*
X553212Y301752D02*
X621792Y301752D01*
X623316Y300228D01*
X553212Y301752D02*
X553200Y303110D01*
X623316Y300228D02*
X623900Y298900D01*
X466344Y329184D02*
X457200Y329184D01*
X466344Y329184D02*
X498348Y297180D01*
X547116Y297180D01*
X551688Y301752D01*
X457200Y329184D02*
X455700Y330700D01*
X551688Y301752D02*
X553200Y303110D01*
X553212Y332232D02*
X553212Y338328D01*
X560832Y345948D01*
X560832Y353568D01*
X550164Y364236D01*
X464820Y364236D01*
X457200Y356616D01*
X553212Y332232D02*
X553200Y331510D01*
X457200Y356616D02*
X455700Y356100D01*
X408608Y296200D02*
X408100Y296200D01*
X408432Y295656D02*
X457200Y295656D01*
X464820Y303276D01*
X464820Y309372D01*
X446532Y327660D01*
X446532Y358140D01*
X475488Y387096D01*
X569976Y387096D01*
X577596Y394716D01*
X408432Y295656D02*
X408100Y296200D01*
X577596Y394716D02*
X578700Y395300D01*
X536448Y70104D02*
X452628Y70104D01*
X536448Y70104D02*
X554736Y88392D01*
X556260Y88392D01*
X569976Y102108D01*
X569976Y222504D01*
X501396Y291084D01*
X477012Y291084D01*
X464820Y303276D01*
X452628Y70104D02*
X451370Y69030D01*
X484632Y99060D02*
X551688Y99060D01*
X484632Y99060D02*
X449580Y134112D01*
X551688Y99060D02*
X552790Y97970D01*
X449580Y134112D02*
X448200Y134800D01*
X435864Y99060D02*
X347472Y99060D01*
X330708Y115824D01*
X251460Y115824D01*
X233172Y134112D01*
X435864Y99060D02*
X436410Y97970D01*
X233172Y134112D02*
X232300Y134800D01*
M02*
