M48
;GenerationSoftware,Autodesk,EAGLE,9.6.2*%
;CreationDate,2021-05-24T10:26:51Z*%
FMAT,2
ICI,OFF
METRIC,TZ,000.000
T8C0.350
T7C0.600
T6C0.700
T5C0.800
T4C0.813
T3C1.016
T2C1.450
T1C3.000
%
G90
M71
T1
X69000Y39000
X69000Y3000
X3000Y39000
X3000Y3000
T2
X21030Y29170
X11030Y29170
T3
X28945Y13480
X31485Y13480
X23230Y13480
X34025Y19830
X55615Y19830
X53075Y19830
X50535Y19830
X44820Y19830
X42280Y19830
X39740Y19830
X20690Y13480
X31485Y19830
X28945Y19830
X23230Y19830
X20690Y19830
X18150Y19830
X34025Y13480
X50535Y13480
X53075Y13480
X55615Y13480
X39740Y13480
X42280Y13480
X44820Y13480
X3591Y31353
X3591Y33853
X18150Y13480
T4
X30600Y1760
X27000Y6840
X58520Y10120
X42250Y24750
X37170Y24750
X42250Y39830
X37170Y39830
X31250Y24910
X26170Y24910
X58474Y1945
X31220Y39880
X47505Y24866
X26140Y39880
X30600Y6840
X52585Y24866
X50860Y39640
X27000Y1760
X45780Y39640
X58520Y7580
X58474Y4485
X19900Y6840
X19900Y1760
X23400Y6840
X23400Y1760
T5
X67770Y16890
X45137Y6903
X55297Y6903
X45119Y9797
X55279Y9797
X33481Y9797
X43641Y9797
X43603Y6830
X33443Y6830
X13490Y23920
X18570Y23920
X62690Y16890
X16030Y23920
X62390Y29890
X67470Y29890
X3990Y19080
X9070Y19080
X8820Y6890
X13900Y6890
T6
X50030Y2260
X59870Y39530
X48030Y2260
X65190Y3460
X61870Y39530
X65190Y5460
X65190Y7460
X46030Y2260
X57870Y39530
X35530Y2280
X37530Y2280
X39530Y2280
T7
X36070Y30670
X36070Y28130
X33490Y35790
X25870Y35790
X53190Y27990
X53190Y30530
X53190Y33070
X53190Y35610
X33490Y28170
X45570Y33070
X45570Y30530
X45570Y27990
X25870Y33250
X25870Y30710
X25870Y28170
X45570Y35610
X33490Y30710
X33490Y33250
X43690Y28130
X43690Y30670
X43690Y33210
X43690Y35750
X36070Y35750
X36070Y33210
T8
X42991Y17950
X30632Y8687
X49682Y34900
X41453Y9296
M30